<svg xmlns="http://www.w3.org/2000/svg" viewBox="0 0 256 256"><rect width="256" height="256" fill="#fefefe"/><rect x="24" y="24" width="96" height="96" fill="#db2524"/><circle cx="184.03" cy="71.93" r="48.4" fill="#2765e9"/><ellipse cx="183.96" cy="183.95" rx="48.24" ry="32.58" fill="#9235e7" transform="rotate(.67 183.96 183.95)"/><path d="M24 152q48 0 96 0c-4.49 7.86-4.49 7.86-6.66 11.38-.47.76-.93 1.52-1.41 2.3-.96 1.55-1.91 3.1-2.87 4.66-3.62 5.89-7.09 11.84-10.38 17.92-2.42 4.38-5.08 8.57-7.79 12.78-4.19 6.54-8.34 13.14-12.15 19.91-1.79 3.13-3.72 6.08-5.75 9.06-4.28-1.51-5.47-4.1-7.56-8-.69-1.26-1.38-2.52-2.08-3.78-.19-.34-.19-.34-1.13-2.05-2.68-4.73-5.59-9.33-8.46-13.95C47 191.26 47 191.26 47 188c-.66 0-1.32 0-2 0-.45-.8-.9-1.6-1.36-2.43-4.49-7.94-9.15-15.77-13.95-23.53-.45-.73-.9-1.46-1.36-2.21-.4-.64-.8-1.29-1.21-1.95-1.13-1.91-2.12-3.9-3.11-5.88Z" fill="#17a24a"/><path d="M201.48 23.8c1.38.01 2.77.04 4.15.07.71.01 1.41.02 2.14.03 1.74.02 3.49.06 5.23.1.33 2.64.66 5.28 1 8 1.65 0 3.3 0 5 0 0 .66 0 1.32 0 2 1.32-.66 2.64-1.32 4-2 .33.99.66 1.98 1 3-.66 0-1.32 0-2 0 0 1.65 0 3.3 0 5 .66 0 1.32 0 2 0 0 .66 0 1.32 0 2 .64.58 1.28 1.16 1.94 1.75 2.51 2.73 2.73 4.62 3.06 8.25.66 0 1.32 0 2 0 0 2.64 0 5.28 0 8-.27-.55-.54-1.1-.81-1.66-1.82-3.58-3.8-7.08-5.75-10.59C223 45 223 45 221.94 42.22c-1.17-2.77-2.28-3.02-4.94-4.22-.33-.99-.66-1.98-1-3-1.65-.71-3.32-1.37-5-2-.6-.47-1.19-.94-1.81-1.43-2.55-1.83-4.98-2.74-7.94-3.76-.49-.17-.49-.17-2.98-1.04-.75-.25-1.5-.51-2.27-.77 2-2 2-2 5.48-2.2Z" fill="#f5f3f6"/><path d="M227 52c6.06 6.61 5.36 15.78 5.2 24.19-.23 4.25-.86 7.79-2.2 11.81-.33 0-.66 0-1 0 0-3.67 0-7.33 0-11-.66.99-1.32 1.98-2 3-.84-2.92-1.14-5.53-1.13-8.56 0-.76-.01-1.53-.01-2.32C226 67 226 67 227 64c-.66 0-1.32 0-2 0-.33.99-.66 1.98-1 3 0-2.31 0-4.62 0-7 .66 0 1.32 0 2 0 .33-2.64.66-5.28 1-8Z" fill="#2a68e8"/><path d="M138 58c1.04 3.38 1.08 6.48 1 10 .33-1.32.66-2.64 1-4 .66 0 1.32 0 2 0 0 6.67 0 13.33 0 20-.66 0-1.32 0-2 0q.345.915.69 1.86c.14.4.14.4.87 2.45.29.8.58 1.6.88 2.43C143 93 143 93 142 96c-5.59-12.52-9.13-24.55-4-38Z" fill="#2e6bf1"/><path d="M229 88c1.25 3.76.44 4.41-1 8-.46 2.66-.73 5.31-1 8-.99 0-1.98 0-3 0 .02 1.13.04 2.27.06 3.44C224 111 224 111 223 112c-2.02.07-4.04.08-6.06.06-1.1-.01-2.21-.02-3.35-.03-.43-.01-.43-.01-2.59-.04 1.38-1.5 1.38-1.5 3-3 .66 0 1.32 0 2 0 .27-.64.54-1.28.81-1.94C218 105 218 105 221 104c.99-2.2.99-2.2 2-5 1.02-1.95 2.06-3.89 3.13-5.81.54-.98 1.08-1.95 1.63-2.96.41-.74.82-1.47 1.24-2.23Z" fill="#f0f2f9"/><path d="M216 160c1.98 0 3.96 0 6 0 0 .66 0 1.32 0 2 .66 0 1.32 0 2 0 0-.66 0-1.32 0-2 2.88-.13 2.88-.13 6 0 2 2 2 2 2.27 4.02-.01.78-.01 1.55-.02 2.35.01.77.01 1.54.02 2.34-.29 2.49-1.02 4.13-2.27 6.29-.42-.59-.85-1.18-1.29-1.79-3.82-5.14-7.36-8.71-12.71-12.21 0-.33 0-.66 0-1Z" fill="#faf8f6"/><path d="M230 192c.66.33 1.32.66 2 1 .05 2.12.09 4.25.13 6.38.02 1.18.05 2.37.07 3.59C232 206 232 206 230 208c-2.6.2-2.6.2-5.63.13-.5-.01-.5-.01-3.04-.05-.77-.02-1.54-.05-2.34-.07.99-.33 1.98-.66 3-1 .04-.66.08-1.32.13-2 1.1-3.78 3.07-6.18 5.5-9.23C229 194 229 194 230 192Z" fill="#fbfdf3"/><path d="M154 29c.33 0 .66 0 1 0 0 1.65 0 3.3 0 5-.99.33-1.98.66-3 1-.33.66-.66 1.32-1 2-.33.66-.66 1.32-1 2-.99.33-1.98.66-3 1-1 1.81-1 1.81-2 4-.98 1.35-1.97 2.69-3 4-1-1-1-1-1.06-4.56.02-1.13.04-2.27.06-3.44.99 0 1.98 0 3 0-.01-.57-.01-.57-.06-3.44C144 33 144 33 145 32c6.53-.24 6.53-.24 9 1 0-1.32 0-2.64 0-4Z" fill="#f2f3f9"/><path d="M144 100c1.15.93 2.3 1.87 3.44 2.81.64.52 1.28 1.04 1.93 1.58C151 106 151 106 152 109c1.77 1.05 1.77 1.05 4 2 .39.18.39.18 2.36 1.07.79.35 1.58.7 2.39 1.05.8.35 1.6.71 2.42 1.07.6.27 1.21.53 1.83.8 0 .33 0 .66 0 1-8.57.29-8.57.29-12-2 0-.66 0-1.32 0-2-.31-.07-.31-.07-1.88-.44C149 111 149 111 147 110c0 .66 0 1.32 0 2-.99-.33-1.98-.66-3-1 .09-.3.09-.3.56-1.81C145 107 145 107 144 104c0-1.32 0-2.64 0-4Z" fill="#ecf0f9"/><path d="M86 208c.33 0 .66 0 1 0 .95 4.76 1.08 9.17 1 14-.58-.19-1.16-.37-1.75-.56-2.49-.48-3.89-.33-6.25.56-.33.66-.66 1.32-1 2-.66 0-1.32 0-2 0 1.61-3.27 3.32-6.48 5.06-9.69.53-.97 1.05-1.95 1.6-2.95C85 209 85 209 86 208Z" fill="#fdfbfe"/><path d="M139 160c1.67-.04 3.33-.04 5 0 .33.33.66.66 1 1 1.67.04 3.33.04 5 0-1.29 1.38-2.63 2.71-4 4-.66 0-1.32 0-2 0-.25.54-.5 1.07-.75 1.63-1.55 2.94-3.38 5.63-5.25 8.38-1.66-4.98-.07-9.96 1-15Z" fill="#f9f5f8"/><path d="M66 217c3 1 3 1 5 4 0 1.32 0 2.64 0 4 .66 0 1.32 0 2 0 0-1.32 0-2.64 0-4 1.32.33 2.64.66 4 1-.75 2.88-.75 2.88-2 6-2.08 1.2-2.08 1.2-4 2-1.17-1.62-2.34-3.25-3.5-4.88-.65-.9-1.3-1.81-1.97-2.74C64 220 64 220 64 218c.66-.33 1.32-.66 2-1Z" fill="#1ea551"/><path d="M159 208c1.49.33 1.49.33 9 2 0-.66 0-1.32 0-2 2.64 0 5.28 0 8 0 0 .66 0 1.32 0 2-.33.16-.33.16-2 1q12 0 24 0c-.33.66-.66 1.32-1 2-3.92.09-7.83.14-11.75.19-.55.01-.55.01-3.31.08-7.58.07-14.78-.58-21.94-3.26-.33-.66-.66-1.32-1-2Z" fill="#9b37f3"/><path d="M179.5 116.94c7.01.92 13.47 1.21 20.5.06-.33.66-.66 1.32-1 2-4.96.99-9.89 1.19-14.94 1.19-.7 0-1.4 0-2.12 0-4.98-.05-9.24-.62-13.94-2.19 4.02-2.68 6.96-1.73 11.5-1.06Z" fill="#497eea"/><path d="M106 174c.33 1.32.66 2.64 1 4 .66 0 1.32 0 2 0-.66 1.32-1.32 2.64-2 4-.99 0-1.98 0-3 0-.33 2.31-.66 4.62-1 7-.66 0-1.32 0-2 0 0 .99 0 1.98 0 3-1.32 0-2.64 0-4 0 0-3.56.79-4.46 2.81-7.31 2.4-3.47 4.42-6.86 6.19-10.69Z" fill="#d9f2e5"/><ellipse cx="184.06" cy="214.7" rx="14.11" ry="1.59" fill="#a553e4"/><path d="M225 64c.66 0 1.32 0 2 0q0 6 0 12c.99.33 1.98.66 3 1-.33 3.67-.67 7.33-1 11-4-4-4.89-10.33-5.25-15.81.22-2.81.59-5.45 1.25-8.19Z" fill="#1e5fe7"/><ellipse cx="183.3" cy="153.57" rx="13.4" ry="1.97" fill="#a350e2" transform="rotate(-.9 183.3 153.57)"/><path d="M211 112c0 .99 0 1.98 0 3-.64.12-1.28.25-1.94.38-.68.21-1.36.41-2.06.63-.33.66-.66 1.32-1 2 1.65 0 3.3 0 5 0 .33.66.66 1.32 1 2-4.67 0-9.33 0-14 0 2.12-4.23 2.44-4.59 6.5-6.25.79-.34 1.59-.67 2.41-1.02C209 112 209 112 211 112Z" fill="#fbf8fb"/><path d="M140 74c-.33 2.97-.66 5.94-1 9 .66 0 1.32 0 2 0 .33-.99.66-1.98 1-3 0 1.32 0 2.64 0 4-.66 0-1.32 0-2 0q.345.915.69 1.86c.14.4.14.4.87 2.45.29.8.58 1.6.88 2.43C143 93 143 93 142 96c-1.01-2.56-2.01-5.12-3-7.69-.29-.72-.57-1.44-.87-2.19-1.47-3.84-2.53-6.94-2.13-11.13 2-1 2-1 4-1Z" fill="#326de1"/><path d="M229 174c.66.33 1.32.66 2 1 2.24 7.18 1.58 13.88-1.83 20.47C228 197 228 197 225 198c0-.66 0-1.32 0-2 .66 0 1.32 0 2 0 1.84-7.41 2.24-14.38 2-22Z" fill="#9147db"/><path d="M183.94 23.81c.72 0 1.43 0 2.17 0 7.3.06 7.3.06 9.89 1.19.33.99.66 1.98 1 3-8-.67-16-1.33-24-2 3.73-2.49 6.63-2.26 10.94-2.19Z" fill="#3c72e6"/><path d="M230 60c2.11 4.22 2.31 7.18 2.25 11.75 0 .71-.01 1.43-.01 2.16-.08 5.02-.66 9.35-2.24 14.09-.33 0-.66 0-1 0 .01-.76.02-1.52.04-2.3.01-.99.02-1.99.03-3.01.01-.99.02-1.97.04-2.99C229 77 229 77 228 74c.66 0 1.32 0 2 0 0-4.67 0-9.33 0-14Z" fill="#427be9"/><path d="M230 192c.66.33 1.32.66 2 1 0 1.65 0 3.3 0 5-.99 0-1.98 0-3 0 0 1.98 0 3.96 0 6-2.38.63-2.38.63-5 1-.66-.66-1.32-1.32-2-2 .2-.23.2-.23 1.24-1.39.54-.61 1.08-1.23 1.63-1.86q.795-.9 1.62-1.83c1.49-1.9 2.51-3.73 3.51-5.92Z" fill="#f4ecf7"/><path d="M110 168c.33 0 .66 0 1 0 .95 4.76 1.08 9.17 1 14-.99 0-1.98 0-3 0 0-1.32 0-2.64 0-4-.66 0-1.32 0-2 0-.23-3.41-.36-5.41 1.44-8.38.26-.27.26-.27 1.56-1.63Z" fill="#fdfbfe"/><path d="M136 44c2 3 2 3 2 5 1.32-.33 2.64-.66 4-1-.45 1.63-.91 3.25-1.38 4.88-.26.9-.51 1.81-.77 2.74C139 58 139 58 137 60c-1.5-3-1.09-5.79-1.06-9.13.01-1.28.02-2.56.03-3.88.01-.99.02-1.97.04-2.99Z" fill="#e7ecf9"/><path d="M160 24c1.42-.05 2.83-.09 4.25-.13.79-.02 1.58-.05 2.39-.07 2.57.21 4.15.91 6.36 2.2-.82.25-1.65.5-2.5.75-3.45 1.23-6.54 2.73-9.77 4.45-1.73.8-1.73.8-3.73.8 0-.99 0-1.98 0-3 1.65-.33 3.3-.66 5-1 0-.66 0-1.32 0-2-.66 0-1.32 0-2 0 0-.66 0-1.32 0-2Z" fill="#f2f2fa"/><path d="M189 154c8.36-.47 15.61-.33 23 4 .33.66.66 1.32 1 2-1.42-.14-2.83-.29-4.25-.44-.39-.04-.39-.04-2.39-.25-2.18-.29-4.24-.74-6.36-1.32 0-.33 0-.66 0-1-3.67-.67-7.33-1.33-11-2 0-.33 0-.66 0-1Z" fill="#8c38db"/><path d="M136 80c2.08 3.11 3.24 6.01 4.56 9.5.43 1.14.87 2.29 1.32 3.47.74 2 1.45 4.01 2.12 6.03-.99 0-1.98 0-3 0 0-1.32 0-2.64 0-4-1.65-.33-3.3-.66-5-1 0-4.67 0-9.33 0-14Z" fill="#dde7fb"/><ellipse cx="186.88" cy="27.93" rx="9.78" ry="1.85" fill="#2363f5" transform="rotate(3.29 186.88 27.93)"/><path d="M24 152c2.31 0 4.62 0 7 0-.04 1.07-.08 2.15-.13 3.25.11 3.41.34 4.96 2.13 7.75-.33.16-.33.16-2 1-1.17-1.81-2.34-3.62-3.5-5.44-.65-1.01-1.3-2.02-1.97-3.06C24 153 24 153 24 152Z" fill="#26a456"/><path d="M113 152c2.31 0 4.62 0 7 0-4.14 7.57-4.14 7.57-7 10-1.13-6.63-1.13-6.63 0-10Z" fill="#22a654"/><path d="M221 41c.66 0 1.32 0 2 0 0 .66 0 1.32 0 2 1.32.33 2.64.66 4 1 .66 2.64 1.32 5.28 2 8 .66 0 1.32 0 2 0 0 2.64 0 5.28 0 8-.13-.27-.13-.27-.81-1.66-1.34-2.65-2.76-5.24-4.19-7.84-1.73-3.14-3.42-6.28-5-9.5Z" fill="#e1ecfd"/><path d="M57 208c2.62 2.39 4.36 4.97 6.19 8 .26.43.26.43 1.61 2.63C66 221 66 221 66 224c-2.5-1.13-2.5-1.13-5-3-.31-3.19-.31-3.19 0-6-1.32-.33-2.64-.66-4-1 0-1.98 0-3.96 0-6Z" fill="#d5f2e5"/><path d="M33 168c2.62 2.39 4.36 4.97 6.19 8 .26.43.26.43 1.61 2.63C42 181 42 181 42 184c-2.5-1.13-2.5-1.13-5-3-.31-3.19-.31-3.19 0-6-1.32-.33-2.64-.66-4-1 0-1.98 0-3.96 0-6Z" fill="#d5f2e5"/><path d="M216 208c0 .66 0 1.32 0 2-.66 0-1.32 0-2 0-.33.99-.66 1.98-1 3 .99.66 1.98 1.32 3 2-2.64.33-5.28.66-8 1 .66-.33 1.32-.66 2-1 0-.66 0-1.32 0-2-2.64.33-5.28.66-8 1 2.26-2.26 4.05-2.97 7-4.13.89-.35 1.77-.71 2.69-1.07 2.31-.8 2.31-.8 4.31-.8Z" fill="#efddfc"/><path d="M152 208c.34.14.34.14 2.06.88 3.27 1.25 6.57 2.2 9.94 3.13 0 .33 0 .66 0 1-1.62.36-3.25.71-4.88 1.06-.9.2-1.81.39-2.74.6C154 215 154 215 152 214c0-1.98 0-3.96 0-6Z" fill="#f1e7f8"/><path d="M155 115c3.33.33 6.67.67 10 1-.33.99-.66 1.98-1 3 1.65 0 3.3 0 5 0 0 .33 0 .66 0 1-4.33 0-8.67 0-13 0-.16-.83-.16-.83-1-5Z" fill="#fcf8f5"/><path d="M196 25c4.33 0 8.67 0 13 0-.99.33-1.98.66-3 1 0 .66 0 1.32 0 2 1.65 0 3.3 0 5 0 0 1.32 0 2.64 0 4-.54-.29-1.08-.57-1.64-.87-2.65-1.27-5.34-2.27-8.11-3.26-.98-.35-1.97-.71-2.98-1.07-.75-.27-1.5-.53-2.27-.8 0-.33 0-.66 0-1Z" fill="#dde7fc"/><path d="M48 192c2.38-.19 2.38-.19 5 0 2.59 3.88 3.12 7.46 4 12-.66 0-1.32 0-2 0-1.73-2.37-1.73-2.37-3.63-5.44-.63-1.01-1.26-2.02-1.91-3.06C48 193 48 193 48 192Z" fill="#2ba559"/><path d="M138 178c1.19 3.56 1.35 6.97 1.56 10.69.02.35.02.35.13 2.13.11 1.73.21 3.46.31 5.19-3.03-3.83-4.15-6.68-4.19-11.56-.01-.39-.01-.39-.04-2.38C136 180 136 180 138 178Z" fill="#9244e0"/><path d="M140 175c1.19 3.56 1.1 6.44 1.06 10.19-.01 1.27-.02 2.54-.03 3.86-.01.98-.02 1.95-.04 2.96.66 0 1.32 0 2 0 0 1.32 0 2.64 0 4-.66 0-1.32 0-2 0-3.25-5.68-3.65-12.42-2.06-18.69.35-.76.7-1.53 1.06-2.31Z" fill="#9e32fa"/><path d="M170 153c-3.11 1.64-6.26 2.88-9.56 4.06-.95.34-1.9.68-2.88 1.04-1.85.65-3.7 1.28-5.56 1.9 0-.66 0-1.32 0-2 .66 0 1.32 0 2 0 0-.66 0-1.32 0-2 10.37-4.78 10.37-4.78 16-3Z" fill="#f1e3fd"/><path d="M138 194c2.42 2.91 4.32 5.63 6 9 .66.33 1.32.66 2 1-1.98.33-3.96.66-6 1-1.19-3.88-2-6.92-2-11Z" fill="#f4edfc"/><path d="M42 177c3 1 3 1 5 4-.38 3.69-.38 3.69-1 7-.5-.67-.5-.67-3-4-.56-.7-1.11-1.4-1.69-2.13C40 180 40 180 40 178c.66-.33 1.32-.66 2-1Z" fill="#27a657"/><ellipse cx="163.17" cy="156.8" rx="9.65" ry="1.63" fill="#8e45d8" transform="rotate(-16.26 163.17 156.8)"/><path d="M225 41c.66 0 1.32 0 2 0 1.02 1.66 2.02 3.32 3 5 .66.33 1.32.66 2 1 0 3.67 0 7.33 0 11-.33 0-.66 0-1 0 0-1.98 0-3.96 0-6-.66 0-1.32 0-2 0-.67-1.46-1.34-2.92-2-4.38-.37-.81-.74-1.62-1.13-2.46C225 43 225 43 225 41Z" fill="#fcf7f1"/><path d="M95 193c.33 0 .66 0 1 0-.33 2.97-.66 5.94-1 9-.66-.33-1.32-.66-2-1-.33 1.65-.66 3.3-1 5-1.32-.66-2.64-1.32-4-2 1.14-1.84 2.29-3.67 3.44-5.5.64-1.02 1.28-2.04 1.93-3.09.27-.4.27-.4 1.63-2.41Z" fill="#e9f7f1"/><path d="M119 153c.33 0 .66 0 1 0-.33 2.97-.66 5.94-1 9-.66-.33-1.32-.66-2-1-.33 1.65-.66 3.3-1 5-1.32-.66-2.64-1.32-4-2 1.14-1.84 2.29-3.67 3.44-5.5.64-1.02 1.28-2.04 1.93-3.09.27-.4.27-.4 1.63-2.41Z" fill="#e9f7f1"/><path d="M210 153c0 .66 0 1.32 0 2 1.32.33 2.64.66 4 1 0 .66 0 1.32 0 2 .66 0 1.32 0 2 0 0 .66 0 1.32 0 2-4.72-1.53-9.36-3.24-14-5 0-.33 0-.66 0-1 5.75-1 5.75-1 8-1Z" fill="#eedbfc"/><path d="M229 88c1.18 3.55.7 4.7-.44 8.19-.29.9-.57 1.8-.87 2.73-.23.69-.46 1.37-.69 2.08-1.65.33-3.3.66-5 1 1.76-4.97 4.39-9.43 7-14Z" fill="#dbe7fb"/><path d="M227 64c.33 0 .66 0 1 0 0 1.98 0 3.96 0 6 .66 0 1.32 0 2 0 0 1.32 0 2.64 0 4-.66 0-1.32 0-2 0 0 1.98 0 3.96 0 6-1.72-2.99-2.25-5.12-2.19-8.56 0-.38 0-.38.02-2.32C226 67 226 67 227 64Z" fill="#2763f9"/><ellipse cx="156.96" cy="154.01" rx="6.08" ry="1.87" fill="#f8fbf3" transform="rotate(-15.91 156.96 154.01)"/><path d="M85 201c2.06.44 2.06.44 4 1-.6 2.02-1.27 4.02-2 6-.33.16-.33.16-2 1 0-.66 0-1.32 0-2-.66 0-1.32 0-2 0 .88-4.88.88-4.88 2-6Z" fill="#25a250"/><path d="M109 161c2.06.44 2.06.44 4 1-.6 2.02-1.27 4.02-2 6-.33.16-.33.16-2 1 0-.66 0-1.32 0-2-.66 0-1.32 0-2 0 .88-4.88.88-4.88 2-6Z" fill="#25a250"/><path d="M82 214c.33 1.32.66 2.64 1 4 .66 0 1.32 0 2 0-.66 1.32-1.32 2.64-2 4-.99 0-1.98 0-3 0-.33.66-.66 1.32-1 2-.66 0-1.32 0-2 0 1.67-3.33 3.33-6.67 5-10Z" fill="#d7f3e8"/><path d="M213 111c.99.33 1.98.66 3 1-.66 0-1.32 0-2 0-.12.62-.25 1.24-.38 1.88C213 116 213 116 211 118c-2.63.13-2.63.13-5 0 .33-.99.66-1.98 1-3 1.32 0 2.64 0 4 0 0-.99 0-1.98 0-3 .66-.33 1.32-.66 2-1Z" fill="#fbfaf1"/><path d="M197 113c.99 0 1.98 0 3 0 0 .66 0 1.32 0 2 .66.33 1.32.66 2 1-4.8 2.4-9.73 2.61-15 3 0-.66 0-1.32 0-2 1.01-.08 1.01-.08 6.05-.49C195 116 195 116 197 113Z" fill="#1f5fdd"/><path d="M176 208c4.33 0 8.67 0 13 0 0 .33 0 .66 0 1-2.97 0-5.94 0-9 0 0 .66 0 1.32 0 2-2.88.63-2.88.63-6 1-.66-.66-1.32-1.32-2-2 1.32 0 2.64 0 4 0 0-.66 0-1.32 0-2Z" fill="#8c2ddd"/><path d="M43 184c.66 1.32 1.32 2.64 2 4 .66 0 1.32 0 2 0 .33 1.32.66 2.64 1 4-.66 0-1.32 0-2 0 0-.66 0-1.32 0-2-.99.33-1.98.66-3 1 0-.66 0-1.32 0-2-.99 0-1.98 0-3 0 .33-.99.66-1.98 1-3 .66 0 1.32 0 2 0 0-.66 0-1.32 0-2Z" fill="#d7edde"/><ellipse cx="137.48" cy="166.39" rx="6.1" ry="1.82" fill="#fafcf1" transform="rotate(-87.05 137.48 166.39)"/><path d="M138 95c.99 0 1.98 0 3 0 0 1.32 0 2.64 0 4 .99 0 1.98 0 3 0 .33 1.65.66 3.3 1 5-1.81-.13-1.81-.13-4-1-3-5.04-3-5.04-3-8Z" fill="#faf9f0"/><path d="M163 211c2.83.33 2.83.33 17 2 0 .33 0 .66 0 1-2.46.08-4.92.14-7.38.19-.35.01-.35.01-2.12.08-2.03.03-2.03.03-5.51-.26-.66-.99-1.32-1.98-2-3Z" fill="#8d3adf"/><path d="M89 200c-.33.66-.66 1.32-1 2-.99 0-1.98 0-3 0-.66 1.65-1.32 3.3-2 5 .66 0 1.32 0 2 0-.33.66-.66 1.32-1 2-.99 0-1.98 0-3 0-.19-3.38-.19-3.38 0-7 3.23-2.15 4.28-2.2 8-2Z" fill="#0d9c41"/><path d="M141 163c.66 0 1.32 0 2 0 .68 1.73.68 1.73 1 4-1.21 2.14-1.21 2.14-2.94 4.25-.57.71-1.13 1.41-1.71 2.14-.22.27-.22.27-1.35 1.61-.33-.99-.66-1.98-1-3 .33-.66.66-1.32 1-2 .66 0 1.32 0 2 0-.02-.78-.04-1.57-.06-2.38C140 165 140 165 141 163Z" fill="#f3e8fc"/><path d="M113 160c-.33.66-.66 1.32-1 2-.99 0-1.98 0-3 0-.66 1.65-1.32 3.3-2 5 .66 0 1.32 0 2 0-.33.66-.66 1.32-1 2-.99 0-1.98 0-3 0-.19-3.38-.19-3.38 0-7 3.23-2.15 4.28-2.2 8-2Z" fill="#0d9c41"/><path d="M51 198c3.48 3.02 4.79 5.57 6 10-1.65-.33-3.3-.66-5-1-.33-2.97-.66-5.94-1-9Z" fill="#d4f2dc"/><path d="M27 158c3.48 3.02 4.79 5.57 6 10-1.65-.33-3.3-.66-5-1-.33-2.97-.66-5.94-1-9Z" fill="#d4f2dc"/><path d="M139 56c1.46 2.92 2.34 4.92 3 8-.66 0-1.32 0-2 0-.33 1.65-.66 3.3-1 5-.33 0-.66 0-1 0 .33-4.33.67-8.67 1-13Z" fill="#195de6"/><path d="M86 208c.33 0 .66 0 1 0 .95 4.76 1.08 9.17 1 14-.33 0-.66 0-1 0-.33-2.97-.66-5.94-1-9-.99.33-1.98.66-3 1 1.88-4.88 1.88-4.88 3-6Z" fill="#dff3e7"/><path d="M110 168c.33 0 .66 0 1 0 .95 4.76 1.08 9.17 1 14-.33 0-.66 0-1 0-.33-2.97-.66-5.94-1-9-.99.33-1.98.66-3 1 1.88-4.88 1.88-4.88 3-6Z" fill="#dff3e7"/><path d="M76 224c.75 1.75.75 1.75 1 4-1.69 2.25-1.69 2.25-4 4-1.32 0-2.64 0-4 0 .33-1.32.66-2.64 1-4 1.32 0 2.64 0 4 0 .66-1.32 1.32-2.64 2-4Z" fill="#bfe9cf"/><path d="M210 104c2.94.38 2.94.38 6 1 .33.66.66 1.32 1 2-.99.99-1.98 1.98-3 3-1.32-.99-2.64-1.98-4-3 .66 0 1.32 0 2 0 0-.66 0-1.32 0-2-.66-.33-1.32-.66-2-1Z" fill="#376fec"/><path d="M67 224c2 2 2 2 2.13 5.13-.04.95-.08 1.9-.13 2.88-.66 0-1.32 0-2 0 0-.99 0-1.98 0-3-.99 0-1.98 0-3 0 .33-.99.66-1.98 1-3 .66 0 1.32 0 2 0 0-.66 0-1.32 0-2Z" fill="#ecf4ed"/><path d="M164 26c1.32.33 2.64.66 4 1-1.46.84-2.91 1.67-4.38 2.5-.41.23-.41.23-2.46 1.41C159 32 159 32 157 32c0-.99 0-1.98 0-3 1.16-.16 1.16-.16 7-1 0-.66 0-1.32 0-2Z" fill="#cedffb"/><path d="M210 210c-2.52 2.52-4.58 3.11-8 4-2.38-.38-2.38-.38-4-1 4.1-2.99 6.98-3.3 12-3Z" fill="#9345db"/><ellipse cx="49.5" cy="198" rx="4.65" ry="1.64" fill="#eaf6f1" transform="rotate(79.91 49.5 198)"/><ellipse cx="25.5" cy="158" rx="4.65" ry="1.64" fill="#eaf6f1" transform="rotate(79.91 25.5 158)"/><path d="M145 98c.66 0 1.32 0 2 0 .33.66.66 1.32 1 2 2.06.63 2.06.63 4 1 0 .99 0 1.98 0 3-.99.33-1.98.66-3 1-2.5-2.17-3.44-3.73-4-7Z" fill="#3068de"/><path d="M219 41c3.4 1.13 4.05 2.13 6 5-.33.66-.66 1.32-1 2-1.65 0-3.3 0-5 0 0-.66 0-1.32 0-2 .66 0 1.32 0 2 0-.66-1.65-1.32-3.3-2-5Z" fill="#3068d8"/><path d="M216 160c1.98 0 3.96 0 6 0 .66 1.98 1.32 3.96 2 6-1.34-.81-2.67-1.62-4-2.44-.74-.45-1.49-.9-2.25-1.37-.58-.39-1.16-.79-1.75-1.19 0-.33 0-.66 0-1Z" fill="#e8d4f3"/><path d="M149 39c.33.66.66 1.32 1 2-.33.3-.33.3-2 1.81-2 2.19-2 2.19-2 5.19-.99 0-1.98 0-3 0 1.31-3.94 2.92-6.23 6-9Z" fill="#4f7ae2"/><ellipse cx="166.49" cy="29.63" rx="4.8" ry="1.64" fill="#2361d4" transform="rotate(-1.88 166.49 29.63)"/><path d="M73 216c4.75.88 4.75.88 7 2-.66 1.32-1.32 2.64-2 4-.33-.66-.66-1.32-1-2-.66 0-1.32 0-2 0 0-.99 0-1.98 0-3-.66-.33-1.32-.66-2-1Z" fill="#2ca95a"/><path d="M97 176c4.75.88 4.75.88 7 2-.66 1.32-1.32 2.64-2 4-.33-.66-.66-1.32-1-2-.66 0-1.32 0-2 0 0-.99 0-1.98 0-3-.66-.33-1.32-.66-2-1Z" fill="#2ca95a"/><ellipse cx="175.57" cy="153.33" rx="4.93" ry="1.46" fill="#b265ea" transform="rotate(-2.11 175.57 153.33)"/><path d="M174 29c1.65 0 3.3 0 5 0 0 .66 0 1.32 0 2 2.64 0 5.28 0 8 0 0 .33 0 .66 0 1-3.67 0-7.33 0-11 0 0-.66 0-1.32 0-2-.66-.33-1.32-.66-2-1Z" fill="#1962e4"/><path d="M216 152c0 1.65 0 3.3 0 5-1.98-.66-3.96-1.32-6-2 1.39-2.79 2.99-3 6-3Z" fill="#f7faf2"/><path d="M211 112c0 .99 0 1.98 0 3-6.96 2.28-6.96 2.28-11 1 1.46-.67 2.92-1.34 4.38-2 .81-.37 1.62-.74 2.46-1.13C209 112 209 112 211 112Z" fill="#c0d3fa"/><ellipse cx="194.56" cy="114.84" rx="3.14" ry="2.09" fill="#1f6aef" transform="rotate(-11.67 194.56 114.84)"/><path d="M198 28c2.34.26 4.68.59 7 1 .33.66.66 1.32 1 2-2.97 0-5.94 0-9 0 .33-.99.66-1.98 1-3Z" fill="#205ed4"/><path d="M68 224c.66 0 1.32 0 2 0 0 .99 0 1.98 0 3 1.65 0 3.3 0 5 0-.33.5-.33.5-2 3-1.94-.75-1.94-.75-4-2-.75-2.13-.75-2.13-1-4Z" fill="#369f5b"/><path d="M92 198c1.43 2.86.6 4.93 0 8-1.32-.66-2.64-1.32-4-2 1.32-1.98 2.64-3.96 4-6Z" fill="#c8eed1"/><path d="M217 200c.99.16.99.16 6 1-.33.99-.66 1.98-1 3-.66 0-1.32 0-2 0 0-.66 0-1.32 0-2-1.32.33-2.64.66-4 1 .33-.99.66-1.98 1-3Z" fill="#8f38d6"/><path d="M224 163c.82.16.82.16 5 1-.33.16-.33.16-2 1-.63 2.06-.63 2.06-1 4-.66-.66-1.32-1.32-2-2 0-1.32 0-2.64 0-4Z" fill="#f4effb"/><path d="M116 158c1.43 2.86.6 4.93 0 8-1.32-.66-2.64-1.32-4-2 1.32-1.98 2.64-3.96 4-6Z" fill="#c8eed1"/></svg>